<svg aria-roledescription="mindmap" role="graphics-document document" viewBox="4.999999046325684 4.999999046325684 943.3276977539062 561.19482421875" style="max-width: 943.3276977539062px;" xmlns:xlink="http://www.w3.org/1999/xlink" xmlns="http://www.w3.org/2000/svg" width="100%" id="bytemd-mermaid-1750917696630-0"><style>#bytemd-mermaid-1750917696630-0{font-family:"trebuchet ms",verdana,arial,sans-serif;font-size:16px;fill:#333;}#bytemd-mermaid-1750917696630-0 .error-icon{fill:#552222;}#bytemd-mermaid-1750917696630-0 .error-text{fill:#552222;stroke:#552222;}#bytemd-mermaid-1750917696630-0 .edge-thickness-normal{stroke-width:2px;}#bytemd-mermaid-1750917696630-0 .edge-thickness-thick{stroke-width:3.5px;}#bytemd-mermaid-1750917696630-0 .edge-pattern-solid{stroke-dasharray:0;}#bytemd-mermaid-1750917696630-0 .edge-pattern-dashed{stroke-dasharray:3;}#bytemd-mermaid-1750917696630-0 .edge-pattern-dotted{stroke-dasharray:2;}#bytemd-mermaid-1750917696630-0 .marker{fill:#333333;stroke:#333333;}#bytemd-mermaid-1750917696630-0 .marker.cross{stroke:#333333;}#bytemd-mermaid-1750917696630-0 svg{font-family:"trebuchet ms",verdana,arial,sans-serif;font-size:16px;}#bytemd-mermaid-1750917696630-0 .edge{stroke-width:3;}#bytemd-mermaid-1750917696630-0 .section--1 rect,#bytemd-mermaid-1750917696630-0 .section--1 path,#bytemd-mermaid-1750917696630-0 .section--1 circle,#bytemd-mermaid-1750917696630-0 .section--1 polygon,#bytemd-mermaid-1750917696630-0 .section--1 path{fill:hsl(240, 100%, 76.2745098039%);}#bytemd-mermaid-1750917696630-0 .section--1 text{fill:#ffffff;}#bytemd-mermaid-1750917696630-0 .node-icon--1{font-size:40px;color:#ffffff;}#bytemd-mermaid-1750917696630-0 .section-edge--1{stroke:hsl(240, 100%, 76.2745098039%);}#bytemd-mermaid-1750917696630-0 .edge-depth--1{stroke-width:17;}#bytemd-mermaid-1750917696630-0 .section--1 line{stroke:hsl(60, 100%, 86.2745098039%);stroke-width:3;}#bytemd-mermaid-1750917696630-0 .disabled,#bytemd-mermaid-1750917696630-0 .disabled circle,#bytemd-mermaid-1750917696630-0 .disabled text{fill:lightgray;}#bytemd-mermaid-1750917696630-0 .disabled text{fill:#efefef;}#bytemd-mermaid-1750917696630-0 .section-0 rect,#bytemd-mermaid-1750917696630-0 .section-0 path,#bytemd-mermaid-1750917696630-0 .section-0 circle,#bytemd-mermaid-1750917696630-0 .section-0 polygon,#bytemd-mermaid-1750917696630-0 .section-0 path{fill:hsl(60, 100%, 73.5294117647%);}#bytemd-mermaid-1750917696630-0 .section-0 text{fill:black;}#bytemd-mermaid-1750917696630-0 .node-icon-0{font-size:40px;color:black;}#bytemd-mermaid-1750917696630-0 .section-edge-0{stroke:hsl(60, 100%, 73.5294117647%);}#bytemd-mermaid-1750917696630-0 .edge-depth-0{stroke-width:14;}#bytemd-mermaid-1750917696630-0 .section-0 line{stroke:hsl(240, 100%, 83.5294117647%);stroke-width:3;}#bytemd-mermaid-1750917696630-0 .disabled,#bytemd-mermaid-1750917696630-0 .disabled circle,#bytemd-mermaid-1750917696630-0 .disabled text{fill:lightgray;}#bytemd-mermaid-1750917696630-0 .disabled text{fill:#efefef;}#bytemd-mermaid-1750917696630-0 .section-1 rect,#bytemd-mermaid-1750917696630-0 .section-1 path,#bytemd-mermaid-1750917696630-0 .section-1 circle,#bytemd-mermaid-1750917696630-0 .section-1 polygon,#bytemd-mermaid-1750917696630-0 .section-1 path{fill:hsl(80, 100%, 76.2745098039%);}#bytemd-mermaid-1750917696630-0 .section-1 text{fill:black;}#bytemd-mermaid-1750917696630-0 .node-icon-1{font-size:40px;color:black;}#bytemd-mermaid-1750917696630-0 .section-edge-1{stroke:hsl(80, 100%, 76.2745098039%);}#bytemd-mermaid-1750917696630-0 .edge-depth-1{stroke-width:11;}#bytemd-mermaid-1750917696630-0 .section-1 line{stroke:hsl(260, 100%, 86.2745098039%);stroke-width:3;}#bytemd-mermaid-1750917696630-0 .disabled,#bytemd-mermaid-1750917696630-0 .disabled circle,#bytemd-mermaid-1750917696630-0 .disabled text{fill:lightgray;}#bytemd-mermaid-1750917696630-0 .disabled text{fill:#efefef;}#bytemd-mermaid-1750917696630-0 .section-2 rect,#bytemd-mermaid-1750917696630-0 .section-2 path,#bytemd-mermaid-1750917696630-0 .section-2 circle,#bytemd-mermaid-1750917696630-0 .section-2 polygon,#bytemd-mermaid-1750917696630-0 .section-2 path{fill:hsl(270, 100%, 76.2745098039%);}#bytemd-mermaid-1750917696630-0 .section-2 text{fill:#ffffff;}#bytemd-mermaid-1750917696630-0 .node-icon-2{font-size:40px;color:#ffffff;}#bytemd-mermaid-1750917696630-0 .section-edge-2{stroke:hsl(270, 100%, 76.2745098039%);}#bytemd-mermaid-1750917696630-0 .edge-depth-2{stroke-width:8;}#bytemd-mermaid-1750917696630-0 .section-2 line{stroke:hsl(90, 100%, 86.2745098039%);stroke-width:3;}#bytemd-mermaid-1750917696630-0 .disabled,#bytemd-mermaid-1750917696630-0 .disabled circle,#bytemd-mermaid-1750917696630-0 .disabled text{fill:lightgray;}#bytemd-mermaid-1750917696630-0 .disabled text{fill:#efefef;}#bytemd-mermaid-1750917696630-0 .section-3 rect,#bytemd-mermaid-1750917696630-0 .section-3 path,#bytemd-mermaid-1750917696630-0 .section-3 circle,#bytemd-mermaid-1750917696630-0 .section-3 polygon,#bytemd-mermaid-1750917696630-0 .section-3 path{fill:hsl(300, 100%, 76.2745098039%);}#bytemd-mermaid-1750917696630-0 .section-3 text{fill:black;}#bytemd-mermaid-1750917696630-0 .node-icon-3{font-size:40px;color:black;}#bytemd-mermaid-1750917696630-0 .section-edge-3{stroke:hsl(300, 100%, 76.2745098039%);}#bytemd-mermaid-1750917696630-0 .edge-depth-3{stroke-width:5;}#bytemd-mermaid-1750917696630-0 .section-3 line{stroke:hsl(120, 100%, 86.2745098039%);stroke-width:3;}#bytemd-mermaid-1750917696630-0 .disabled,#bytemd-mermaid-1750917696630-0 .disabled circle,#bytemd-mermaid-1750917696630-0 .disabled text{fill:lightgray;}#bytemd-mermaid-1750917696630-0 .disabled text{fill:#efefef;}#bytemd-mermaid-1750917696630-0 .section-4 rect,#bytemd-mermaid-1750917696630-0 .section-4 path,#bytemd-mermaid-1750917696630-0 .section-4 circle,#bytemd-mermaid-1750917696630-0 .section-4 polygon,#bytemd-mermaid-1750917696630-0 .section-4 path{fill:hsl(330, 100%, 76.2745098039%);}#bytemd-mermaid-1750917696630-0 .section-4 text{fill:black;}#bytemd-mermaid-1750917696630-0 .node-icon-4{font-size:40px;color:black;}#bytemd-mermaid-1750917696630-0 .section-edge-4{stroke:hsl(330, 100%, 76.2745098039%);}#bytemd-mermaid-1750917696630-0 .edge-depth-4{stroke-width:2;}#bytemd-mermaid-1750917696630-0 .section-4 line{stroke:hsl(150, 100%, 86.2745098039%);stroke-width:3;}#bytemd-mermaid-1750917696630-0 .disabled,#bytemd-mermaid-1750917696630-0 .disabled circle,#bytemd-mermaid-1750917696630-0 .disabled text{fill:lightgray;}#bytemd-mermaid-1750917696630-0 .disabled text{fill:#efefef;}#bytemd-mermaid-1750917696630-0 .section-5 rect,#bytemd-mermaid-1750917696630-0 .section-5 path,#bytemd-mermaid-1750917696630-0 .section-5 circle,#bytemd-mermaid-1750917696630-0 .section-5 polygon,#bytemd-mermaid-1750917696630-0 .section-5 path{fill:hsl(0, 100%, 76.2745098039%);}#bytemd-mermaid-1750917696630-0 .section-5 text{fill:black;}#bytemd-mermaid-1750917696630-0 .node-icon-5{font-size:40px;color:black;}#bytemd-mermaid-1750917696630-0 .section-edge-5{stroke:hsl(0, 100%, 76.2745098039%);}#bytemd-mermaid-1750917696630-0 .edge-depth-5{stroke-width:-1;}#bytemd-mermaid-1750917696630-0 .section-5 line{stroke:hsl(180, 100%, 86.2745098039%);stroke-width:3;}#bytemd-mermaid-1750917696630-0 .disabled,#bytemd-mermaid-1750917696630-0 .disabled circle,#bytemd-mermaid-1750917696630-0 .disabled text{fill:lightgray;}#bytemd-mermaid-1750917696630-0 .disabled text{fill:#efefef;}#bytemd-mermaid-1750917696630-0 .section-6 rect,#bytemd-mermaid-1750917696630-0 .section-6 path,#bytemd-mermaid-1750917696630-0 .section-6 circle,#bytemd-mermaid-1750917696630-0 .section-6 polygon,#bytemd-mermaid-1750917696630-0 .section-6 path{fill:hsl(30, 100%, 76.2745098039%);}#bytemd-mermaid-1750917696630-0 .section-6 text{fill:black;}#bytemd-mermaid-1750917696630-0 .node-icon-6{font-size:40px;color:black;}#bytemd-mermaid-1750917696630-0 .section-edge-6{stroke:hsl(30, 100%, 76.2745098039%);}#bytemd-mermaid-1750917696630-0 .edge-depth-6{stroke-width:-4;}#bytemd-mermaid-1750917696630-0 .section-6 line{stroke:hsl(210, 100%, 86.2745098039%);stroke-width:3;}#bytemd-mermaid-1750917696630-0 .disabled,#bytemd-mermaid-1750917696630-0 .disabled circle,#bytemd-mermaid-1750917696630-0 .disabled text{fill:lightgray;}#bytemd-mermaid-1750917696630-0 .disabled text{fill:#efefef;}#bytemd-mermaid-1750917696630-0 .section-7 rect,#bytemd-mermaid-1750917696630-0 .section-7 path,#bytemd-mermaid-1750917696630-0 .section-7 circle,#bytemd-mermaid-1750917696630-0 .section-7 polygon,#bytemd-mermaid-1750917696630-0 .section-7 path{fill:hsl(90, 100%, 76.2745098039%);}#bytemd-mermaid-1750917696630-0 .section-7 text{fill:black;}#bytemd-mermaid-1750917696630-0 .node-icon-7{font-size:40px;color:black;}#bytemd-mermaid-1750917696630-0 .section-edge-7{stroke:hsl(90, 100%, 76.2745098039%);}#bytemd-mermaid-1750917696630-0 .edge-depth-7{stroke-width:-7;}#bytemd-mermaid-1750917696630-0 .section-7 line{stroke:hsl(270, 100%, 86.2745098039%);stroke-width:3;}#bytemd-mermaid-1750917696630-0 .disabled,#bytemd-mermaid-1750917696630-0 .disabled circle,#bytemd-mermaid-1750917696630-0 .disabled text{fill:lightgray;}#bytemd-mermaid-1750917696630-0 .disabled text{fill:#efefef;}#bytemd-mermaid-1750917696630-0 .section-8 rect,#bytemd-mermaid-1750917696630-0 .section-8 path,#bytemd-mermaid-1750917696630-0 .section-8 circle,#bytemd-mermaid-1750917696630-0 .section-8 polygon,#bytemd-mermaid-1750917696630-0 .section-8 path{fill:hsl(150, 100%, 76.2745098039%);}#bytemd-mermaid-1750917696630-0 .section-8 text{fill:black;}#bytemd-mermaid-1750917696630-0 .node-icon-8{font-size:40px;color:black;}#bytemd-mermaid-1750917696630-0 .section-edge-8{stroke:hsl(150, 100%, 76.2745098039%);}#bytemd-mermaid-1750917696630-0 .edge-depth-8{stroke-width:-10;}#bytemd-mermaid-1750917696630-0 .section-8 line{stroke:hsl(330, 100%, 86.2745098039%);stroke-width:3;}#bytemd-mermaid-1750917696630-0 .disabled,#bytemd-mermaid-1750917696630-0 .disabled circle,#bytemd-mermaid-1750917696630-0 .disabled text{fill:lightgray;}#bytemd-mermaid-1750917696630-0 .disabled text{fill:#efefef;}#bytemd-mermaid-1750917696630-0 .section-9 rect,#bytemd-mermaid-1750917696630-0 .section-9 path,#bytemd-mermaid-1750917696630-0 .section-9 circle,#bytemd-mermaid-1750917696630-0 .section-9 polygon,#bytemd-mermaid-1750917696630-0 .section-9 path{fill:hsl(180, 100%, 76.2745098039%);}#bytemd-mermaid-1750917696630-0 .section-9 text{fill:black;}#bytemd-mermaid-1750917696630-0 .node-icon-9{font-size:40px;color:black;}#bytemd-mermaid-1750917696630-0 .section-edge-9{stroke:hsl(180, 100%, 76.2745098039%);}#bytemd-mermaid-1750917696630-0 .edge-depth-9{stroke-width:-13;}#bytemd-mermaid-1750917696630-0 .section-9 line{stroke:hsl(0, 100%, 86.2745098039%);stroke-width:3;}#bytemd-mermaid-1750917696630-0 .disabled,#bytemd-mermaid-1750917696630-0 .disabled circle,#bytemd-mermaid-1750917696630-0 .disabled text{fill:lightgray;}#bytemd-mermaid-1750917696630-0 .disabled text{fill:#efefef;}#bytemd-mermaid-1750917696630-0 .section-10 rect,#bytemd-mermaid-1750917696630-0 .section-10 path,#bytemd-mermaid-1750917696630-0 .section-10 circle,#bytemd-mermaid-1750917696630-0 .section-10 polygon,#bytemd-mermaid-1750917696630-0 .section-10 path{fill:hsl(210, 100%, 76.2745098039%);}#bytemd-mermaid-1750917696630-0 .section-10 text{fill:black;}#bytemd-mermaid-1750917696630-0 .node-icon-10{font-size:40px;color:black;}#bytemd-mermaid-1750917696630-0 .section-edge-10{stroke:hsl(210, 100%, 76.2745098039%);}#bytemd-mermaid-1750917696630-0 .edge-depth-10{stroke-width:-16;}#bytemd-mermaid-1750917696630-0 .section-10 line{stroke:hsl(30, 100%, 86.2745098039%);stroke-width:3;}#bytemd-mermaid-1750917696630-0 .disabled,#bytemd-mermaid-1750917696630-0 .disabled circle,#bytemd-mermaid-1750917696630-0 .disabled text{fill:lightgray;}#bytemd-mermaid-1750917696630-0 .disabled text{fill:#efefef;}#bytemd-mermaid-1750917696630-0 .section-root rect,#bytemd-mermaid-1750917696630-0 .section-root path,#bytemd-mermaid-1750917696630-0 .section-root circle,#bytemd-mermaid-1750917696630-0 .section-root polygon{fill:hsl(240, 100%, 46.2745098039%);}#bytemd-mermaid-1750917696630-0 .section-root text{fill:#ffffff;}#bytemd-mermaid-1750917696630-0 .icon-container{height:100%;display:flex;justify-content:center;align-items:center;}#bytemd-mermaid-1750917696630-0 .edge{fill:none;}#bytemd-mermaid-1750917696630-0 :root{--mermaid-font-family:"trebuchet ms",verdana,arial,sans-serif;}</style><g></g><g></g><g class="mindmap-edges"><path class="edge section-edge-0 edge-depth-1" d="M 556.1357433899598,157.92023276877282 L 611.5276124269407,153.98414157992423 L666.9194814639216,150.04805039107563"></path><path class="edge section-edge-0 edge-depth-1" d="M 547.8702551199232,145.5613253157903 L 557.8188830041341,125.62166608738917 L567.7675108883451,105.68200685898805"></path><path class="edge section-edge-0 edge-depth-1" d="M 531.8905359016355,147.20094501554314 L 502.8747396037181,110.37224963145408 L473.8589433058007,73.54355424736501"></path><path class="edge section-edge-0 edge-depth-1" d="M 554.1928864969926,151.5339525325328 L 607.0564324327511,121.28634564569009 L659.9199783685095,91.03873875884739"></path><path class="edge section-edge-0 edge-depth-1" d="M 546.3758716668008,144.91449862126194 L 564.2916933793974,96.46444550550356 L582.2075150919941,48.01439238974518"></path><path class="edge section-edge-0 edge-depth-0" d="M 486.4704202828909,278.9319496516361 L 510.70989209928564,225.78155754138248 L534.9493639156804,172.6311654311289"></path><path class="edge section-edge-1 edge-depth-1" d="M 559.530809400143,425.3501229921567 L 611.9383573212008,455.1156307657285 L664.3459052422586,484.8811385393003"></path><path class="edge section-edge-1 edge-depth-1" d="M 538.9375887450178,404.98084504055186 L 528.9461759231726,387.82862261826835 L518.9547631013274,370.67640019598485"></path><path class="edge section-edge-1 edge-depth-1" d="M 556.1091412609948,406.43439037959024 L 579.3225691066448,378.66980346284936 L602.5359969522948,350.9052165461085"></path><path class="edge section-edge-1 edge-depth-1" d="M 533.0561702879286,411.264334893155 L 475.96731616946954,382.8812858006727 L418.8784620510105,354.49823670819035"></path><path class="edge section-edge-1 edge-depth-1" d="M 549.0903165249161,432.71464009291003 L 556.9973740582514,477.59576003979873 L564.9044315915866,522.4768799866874"></path><path class="edge section-edge-1 edge-depth-0" d="M 487.2541368494212,305.84204622964 L 513.367022141898,355.26091260690623 L539.4799074343748,404.67977898417246"></path><path class="edge section-edge-2 edge-depth-1" d="M 365.35759074186285,174.3889069572818 L 307.15089487770035,144.00881312579915 L248.94419901353785,113.62871929431651"></path><path class="edge section-edge-2 edge-depth-1" d="M 393.11376261495593,185.323532474301 L 456.5643461092386,202.85149387030313 L520.0149296035213,220.37945526630526"></path><path class="edge section-edge-2 edge-depth-1" d="M 388.1766826760755,169.73878918320426 L 404.65070930229626,149.68449140592114 L421.12473592851705,129.630193628638"></path><path class="edge section-edge-2 edge-depth-1" d="M 363.7272124230692,179.86237020433958 L 314.8569324822008,175.05959969003 L265.98665254133243,170.25682917572044"></path><path class="edge section-edge-2 edge-depth-1" d="M 374.221203114333,166.99979301233776 L 361.62499691279686,126.29266896346624 L349.02879071126074,85.5855449145947"></path><path class="edge section-edge-2 edge-depth-0" d="M 470.13147392442505,281.5031251452143 L 429.45080502698136,236.9545595791388 L388.77013612953766,192.40599401306326"></path><path class="edge section-edge-3 edge-depth-1" d="M 437.468881652606,435.4492430055484 L 446.6399113220723,474.1516071755158 L455.8109409915386,512.8539713454832"></path><path class="edge section-edge-3 edge-depth-1" d="M 447.473047876332,427.467973178399 L 492.17426928919906,449.4305085789273 L536.8754907020661,471.39304397945557"></path><path class="edge section-edge-3 edge-depth-1" d="M 423.90585857216644,431.93955158418544 L 394.6482335591647,464.0399102621118 L365.3906085461629,496.14026894003814"></path><path class="edge section-edge-3 edge-depth-1" d="M 419.2753363354256,418.04570201121356 L 366.72489131649695,408.032209144601 L314.1744462975683,398.0187162779884"></path><path class="edge section-edge-3 edge-depth-1" d="M 419.51151684106236,424.6989207084021 L 363.90757168079614,439.4467415628974 L308.3036265205299,454.19456241739266"></path><path class="edge section-edge-3 edge-depth-0" d="M 475.15991732812097,306.69097061273123 L 457.12826392957425,356.7165563617226 L439.0966105310275,406.742142110714"></path><path class="edge section-edge-4 edge-depth-1" d="M 214.76087400622492,346.00620684488905 L 153.31772710258173,344.7164210767944 L91.87458019893853,343.42663530869976"></path><path class="edge section-edge-4 edge-depth-1" d="M 215.52431458410962,351.0553987859199 L 145.56742343852522,374.3250635387733 L75.61053229294083,397.59472829162667"></path><path class="edge section-edge-4 edge-depth-1" d="M 215.8173195864268,340.78301344801366 L 147.46968555363355,313.63077619754756 L79.1220515208403,286.47853894708146"></path><path class="edge section-edge-4 edge-depth-1" d="M 222.32845715435104,359.35206101850605 L 202.57109151298766,394.0075073063323 L182.81372587162429,428.6629535941585"></path><path class="edge section-edge-4 edge-depth-0" d="M 465.58005929787373,295.72626272685284 L 355.00194176054356,319.4503442836718 L244.42382422321342,343.1744258404908"></path><path class="edge section-edge-5 edge-depth-1" d="M 288.9382970604353,242.58496680110724 L 304.22253682844286,264.6751342255912 L319.50677659645044,286.7653016500752"></path><path class="edge section-edge-5 edge-depth-1" d="M 295.3177165510744,231.8519179309249 L 341.4461855190406,236.80731971424134 L387.57465448700685,241.76272149755778"></path><path class="edge section-edge-5 edge-depth-1" d="M 267.62648804030493,238.1076876218453 L 232.0052113124484,260.0149507124227 L196.38393458459186,281.92221380300015"></path><path class="edge section-edge-5 edge-depth-1" d="M 265.4162184762781,229.63283784709589 L 205.63735954433048,227.17222361670431 L145.85850061238284,224.71160938631274"></path><path class="edge section-edge-5 edge-depth-1" d="M 267.029769184081,223.4569106664465 L 209.6348293009296,194.30472358811969 L152.23988941777822,165.15253650979287"></path><path class="edge section-edge-5 edge-depth-0" d="M 465.926648655999,288.1134486201114 L 380.32492028148437,261.4147113788566 L294.72319190696976,234.7159741376019"></path><path class="edge section-edge-6 edge-depth-1" d="M 689.7615560268081,207.86635890210383 L 733.9343034728352,194.4285514705093 L778.1070509188622,180.99074403891476"></path><path class="edge section-edge-6 edge-depth-1" d="M 687.2146546561089,202.97609629328684 L 735.6733820426925,164.9773252397579 L784.1321094292764,126.97855418622895"></path><path class="edge section-edge-6 edge-depth-1" d="M 685.62253024703,223.21936019632247 L 708.5350968232445,247.87253409332783 L731.4476633994591,272.5257079903332"></path><path class="edge section-edge-6 edge-depth-1" d="M 665.638668113594,223.6119387144842 L 646.8921558504247,245.44263376096072 L628.1456435872554,267.2733288074372"></path><path class="edge section-edge-6 edge-depth-1" d="M 690.3335801330484,213.75302038040834 L 759.445080927485,220.7974343764764 L828.5565817219217,227.84184837254443"></path><path class="edge section-edge-6 edge-depth-0" d="M 494.11683970724914,286.86929317408857 L 577.828605847782,252.4058278596935 L661.5403719883149,217.94236254529844"></path><path class="edge section-edge-7 edge-depth-1" d="M 704.3065409467123,363.1250970070954 L 685.2736173858234,387.31787668642517 L666.2406938249345,411.5106563657549"></path><path class="edge section-edge-7 edge-depth-1" d="M 727.6029506640808,346.00783871797375 L 784.4951957653494,324.3889053562724 L841.387440866618,302.76997199457105"></path><path class="edge section-edge-7 edge-depth-1" d="M 728.5684919344532,351.95308450781664 L 796.8635447392971,354.76469084342614 L865.1585975441411,357.57629717903563"></path><path class="edge section-edge-7 edge-depth-1" d="M 727.2126662295045,357.5956941910553 L 789.1719282463634,386.0475676093623 L851.1311902632226,414.4994410276693"></path><path class="edge section-edge-7 edge-depth-1" d="M 720.9332006800258,364.4107838063949 L 738.3982185411954,395.47029510059815 L755.863236402365,426.5298063948014"></path><path class="edge section-edge-7 edge-depth-0" d="M 494.79222969279715,296.2425069241456 L 596.9137502045427,321.9578787144104 L699.0352707162882,347.67325050467525"></path></g><g class="mindmap-nodes"><g transform="translate(422.0645162285173, 273.6342240717579)" class="mindmap-node section--1 section-root"><g transform="translate(58.18179702758789, 18.945454025268553)"><circle r="58.18179702758789" class="node-bkg node-circle" id="node-0"></circle></g><g transform="translate(58.18179702758789, 5)"><text text-anchor="middle" dominant-baseline="middle" alignment-baseline="middle" dy="1em"><tspan dy="1em" x="0">前端性能优化</tspan></text></g></g><g transform="translate(482.9916739148782, 140.03798296047)" class="mindmap-node section-0"><g><path d="M0 32.89090805053711 v-27.890908050537107 q0,-5 5,-5 h106.36359405517578 q5,0 5,5 v32.89090805053711 H0 Z" class="node-bkg node-no-border" id="node-1"></path><line y2="37.89090805053711" x2="116.36359405517578" y1="37.89090805053711" x1="0" class="node-line-0"></line></g><g transform="translate(58.18179702758789, 5)"><text text-anchor="middle" dominant-baseline="middle" alignment-baseline="middle" dy="1em"><tspan dy="1em" x="0">资源加载优化</tspan></text></g></g><g transform="translate(639.8789157766496, 130.03939214884133)" class="mindmap-node section-0"><g><path d="M0 32.89090805053711 v-27.890908050537107 q0,-5 5,-5 h74.00567626953125 q5,0 5,5 v32.89090805053711 H0 Z" class="node-bkg node-no-border" id="node-2"></path><line y2="37.89090805053711" x2="84.00567626953125" y1="37.89090805053711" x1="0" class="node-line-0"></line></g><g transform="translate(42.002838134765625, 5)"><text text-anchor="middle" dominant-baseline="middle" alignment-baseline="middle" dy="1em"><tspan dy="1em" x="0">代码分割</tspan></text></g></g><g transform="translate(540.2824865941225, 73.31444116377122)" class="mindmap-node section-0"><g><path d="M0 32.89090805053711 v-27.890908050537107 q0,-5 5,-5 h58.363616943359375 q5,0 5,5 v32.89090805053711 H0 Z" class="node-bkg node-no-border" id="node-3"></path><line y2="37.89090805053711" x2="68.36361694335938" y1="37.89090805053711" x1="0" class="node-line-0"></line></g><g transform="translate(34.18180847167969, 5)"><text text-anchor="middle" dominant-baseline="middle" alignment-baseline="middle" dy="1em"><tspan dy="1em" x="0">懒加载</tspan></text></g></g><g transform="translate(414.394207422685, 42.81560825190104)" class="mindmap-node section-0"><g><path d="M0 32.89090805053711 v-27.890908050537107 q0,-5 5,-5 h90.36360168457031 q5,0 5,5 v32.89090805053711 H0 Z" class="node-bkg node-no-border" id="node-4"></path><line y2="37.89090805053711" x2="100.36360168457031" y1="37.89090805053711" x1="0" class="node-line-0"></line></g><g transform="translate(50.181800842285156, 5)"><text text-anchor="middle" dominant-baseline="middle" alignment-baseline="middle" dy="1em"><tspan dy="1em" x="0">预加载策略</tspan></text></g></g><g transform="translate(631.9607104513564, 64.64380028037306)" class="mindmap-node section-0"><g><path d="M0 32.89090805053711 v-27.890908050537107 q0,-5 5,-5 h71.95736694335938 q5,0 5,5 v32.89090805053711 H0 Z" class="node-bkg node-no-border" id="node-5"></path><line y2="37.89090805053711" x2="81.95736694335938" y1="37.89090805053711" x1="0" class="node-line-0"></line></g><g transform="translate(40.97868347167969, 5)"><text text-anchor="middle" dominant-baseline="middle" alignment-baseline="middle" dy="1em"><tspan dy="1em" x="0">CDN加速</tspan></text></g></g><g transform="translate(533.8531264181354, 15)" class="mindmap-node section-0"><g><path d="M0 32.89090805053711 v-27.890908050537107 q0,-5 5,-5 h97.11357879638672 q5,0 5,5 v32.89090805053711 H0 Z" class="node-bkg node-no-border" id="node-6"></path><line y2="37.89090805053711" x2="107.11357879638672" y1="37.89090805053711" x1="0" class="node-line-0"></line></g><g transform="translate(53.55678939819336, 5)"><text text-anchor="middle" dominant-baseline="middle" alignment-baseline="middle" dy="1em"><tspan dy="1em" x="0">HTTP/2优化</tspan></text></g></g><g transform="translate(504.30592637070845, 398.9966930915175)" class="mindmap-node section-1"><g><path d="M0 32.89090805053711 v-27.890908050537107 q0,-5 5,-5 h74.36360931396484 q5,0 5,5 v32.89090805053711 H0 Z" class="node-bkg node-no-border" id="node-7"></path><line y2="37.89090805053711" x2="84.36360931396484" y1="37.89090805053711" x1="0" class="node-line-1"></line></g><g transform="translate(42.18180465698242, 5)"><text text-anchor="middle" dominant-baseline="middle" alignment-baseline="middle" dy="1em"><tspan dy="1em" x="0">构建优化</tspan></text></g></g><g transform="translate(621.7224758937634, 473.34366038940243)" class="mindmap-node section-1"><g><path d="M0 32.89090805053711 v-27.890908050537107 q0,-5 5,-5 h101.33301544189453 q5,0 5,5 v32.89090805053711 H0 Z" class="node-bkg node-no-border" id="node-8"></path><line y2="37.89090805053711" x2="111.33301544189453" y1="37.89090805053711" x1="0" class="node-line-1"></line></g><g transform="translate(55.666507720947266, 5)"><text text-anchor="middle" dominant-baseline="middle" alignment-baseline="middle" dy="1em"><tspan dy="1em" x="0">Tree   Shaking</tspan></text></g></g><g transform="translate(469.40178268388877, 338.76964409448215)" class="mindmap-node section-1"><g><path d="M0 32.89090805053711 v-27.890908050537107 q0,-5 5,-5 h74.00567626953125 q5,0 5,5 v32.89090805053711 H0 Z" class="node-bkg node-no-border" id="node-9"></path><line y2="37.89090805053711" x2="84.00567626953125" y1="37.89090805053711" x1="0" class="node-line-1"></line></g><g transform="translate(42.002838134765625, 5)"><text text-anchor="middle" dominant-baseline="middle" alignment-baseline="middle" dy="1em"><tspan dy="1em" x="0">代码压缩</tspan></text></g></g><g transform="translate(569.9756025286163, 320.45200578364415)" class="mindmap-node section-1"><g><path d="M0 32.89090805053711 v-27.890908050537107 q0,-5 5,-5 h74.36360931396484 q5,0 5,5 v32.89090805053711 H0 Z" class="node-bkg node-no-border" id="node-10"></path><line y2="37.89090805053711" x2="84.36360931396484" y1="37.89090805053711" x1="0" class="node-line-1"></line></g><g transform="translate(42.18180465698242, 5)"><text text-anchor="middle" dominant-baseline="middle" alignment-baseline="middle" dy="1em"><tspan dy="1em" x="0">图片优化</tspan></text></g></g><g transform="translate(354.8158969777521, 328.8749704592908)" class="mindmap-node section-1"><g><path d="M0 32.89090805053711 v-27.890908050537107 q0,-5 5,-5 h91.26200866699219 q5,0 5,5 v32.89090805053711 H0 Z" class="node-bkg node-no-border" id="node-11"></path><line y2="37.89090805053711" x2="101.26200866699219" y1="37.89090805053711" x1="0" class="node-line-1"></line></g><g transform="translate(50.631004333496094, 5)"><text text-anchor="middle" dominant-baseline="middle" alignment-baseline="middle" dy="1em"><tspan dy="1em" x="0">Bundle分析</tspan></text></g></g><g transform="translate(525.3252124318294, 518.3039189375429)" class="mindmap-node section-1"><g><path d="M0 32.89090805053711 v-27.890908050537107 q0,-5 5,-5 h74.36360931396484 q5,0 5,5 v32.89090805053711 H0 Z" class="node-bkg node-no-border" id="node-12"></path><line y2="37.89090805053711" x2="84.36360931396484" y1="37.89090805053711" x1="0" class="node-line-1"></line></g><g transform="translate(42.18180465698242, 5)"><text text-anchor="middle" dominant-baseline="middle" alignment-baseline="middle" dy="1em"><tspan dy="1em" x="0">依赖优化</tspan></text></g></g><g transform="translate(336.4734921408751, 162.3839870359826)" class="mindmap-node section-2"><g><path d="M0 32.89090805053711 v-27.890908050537107 q0,-5 5,-5 h74.36360931396484 q5,0 5,5 v32.89090805053711 H0 Z" class="node-bkg node-no-border" id="node-13"></path><line y2="37.89090805053711" x2="84.36360931396484" y1="37.89090805053711" x1="0" class="node-line-2"></line></g><g transform="translate(42.18180465698242, 5)"><text text-anchor="middle" dominant-baseline="middle" alignment-baseline="middle" dy="1em"><tspan dy="1em" x="0">缓存策略</tspan></text></g></g><g transform="translate(185.464692115258, 87.74273116507857)" class="mindmap-node section-2"><g><path d="M0 32.89090805053711 v-27.890908050537107 q0,-5 5,-5 h90.36360168457031 q5,0 5,5 v32.89090805053711 H0 Z" class="node-bkg node-no-border" id="node-14"></path><line y2="37.89090805053711" x2="100.36360168457031" y1="37.89090805053711" x1="0" class="node-line-2"></line></g><g transform="translate(50.181800842285156, 5)"><text text-anchor="middle" dominant-baseline="middle" alignment-baseline="middle" dy="1em"><tspan dy="1em" x="0">浏览器缓存</tspan></text></g></g><g transform="translate(470.3331671491353, 205.42809265408653)" class="mindmap-node section-2"><g><path d="M0 32.89090805053711 v-27.890908050537107 q0,-5 5,-5 h118.28045654296875 q5,0 5,5 v32.89090805053711 H0 Z" class="node-bkg node-no-border" id="node-15"></path><line y2="37.89090805053711" x2="128.28045654296875" y1="37.89090805053711" x1="0" class="node-line-2"></line></g><g transform="translate(64.14022827148438, 5)"><text text-anchor="middle" dominant-baseline="middle" alignment-baseline="middle" dy="1em"><tspan dy="1em" x="0">Service   Worker</tspan></text></g></g><g transform="translate(388.46431714975256, 99.09408772532254)" class="mindmap-node section-2"><g><path d="M0 32.89090805053711 v-27.890908050537107 q0,-5 5,-5 h74.36360931396484 q5,0 5,5 v32.89090805053711 H0 Z" class="node-bkg node-no-border" id="node-16"></path><line y2="37.89090805053711" x2="84.36360931396484" y1="37.89090805053711" x1="0" class="node-line-2"></line></g><g transform="translate(42.18180465698242, 5)"><text text-anchor="middle" dominant-baseline="middle" alignment-baseline="middle" dy="1em"><tspan dy="1em" x="0">本地存储</tspan></text></g></g><g transform="translate(208.87676350956167, 149.8443042935403)" class="mindmap-node section-2"><g><path d="M0 32.89090805053711 v-27.890908050537107 q0,-5 5,-5 h74.36360931396484 q5,0 5,5 v32.89090805053711 H0 Z" class="node-bkg node-no-border" id="node-17"></path><line y2="37.89090805053711" x2="84.36360931396484" y1="37.89090805053711" x1="0" class="node-line-2"></line></g><g transform="translate(42.18180465698242, 5)"><text text-anchor="middle" dominant-baseline="middle" alignment-baseline="middle" dy="1em"><tspan dy="1em" x="0">接口缓存</tspan></text></g></g><g transform="translate(302.59185889297055, 52.310442840412755)" class="mindmap-node section-2"><g><path d="M0 32.89090805053711 v-27.890908050537107 q0,-5 5,-5 h74.00567626953125 q5,0 5,5 v32.89090805053711 H0 Z" class="node-bkg node-no-border" id="node-18"></path><line y2="37.89090805053711" x2="84.00567626953125" y1="37.89090805053711" x1="0" class="node-line-2"></line></g><g transform="translate(42.002838134765625, 5)"><text text-anchor="middle" dominant-baseline="middle" alignment-baseline="middle" dy="1em"><tspan dy="1em" x="0">版本控制</tspan></text></g></g><g transform="translate(391.8284099460609, 401.90798060115026)" class="mindmap-node section-3"><g><path d="M0 32.89090805053711 v-27.890908050537107 q0,-5 5,-5 h74.36360931396484 q5,0 5,5 v32.89090805053711 H0 Z" class="node-bkg node-no-border" id="node-19"></path><line y2="37.89090805053711" x2="84.36360931396484" y1="37.89090805053711" x1="0" class="node-line-3"></line></g><g transform="translate(42.18180465698242, 5)"><text text-anchor="middle" dominant-baseline="middle" alignment-baseline="middle" dy="1em"><tspan dy="1em" x="0">渲染性能</tspan></text></g></g><g transform="translate(417.26676990633564, 508.50432569934424)" class="mindmap-node section-3"><g><path d="M0 32.89090805053711 v-27.890908050537107 q0,-5 5,-5 h74.00567626953125 q5,0 5,5 v32.89090805053711 H0 Z" class="node-bkg node-no-border" id="node-20"></path><line y2="37.89090805053711" x2="84.00567626953125" y1="37.89090805053711" x1="0" class="node-line-3"></line></g><g transform="translate(42.002838134765625, 5)"><text text-anchor="middle" dominant-baseline="middle" alignment-baseline="middle" dy="1em"><tspan dy="1em" x="0">虚拟滚动</tspan></text></g></g><g transform="translate(508.1565193183724, 459.06212850616726)" class="mindmap-node section-3"><g><path d="M0 32.89090805053711 v-27.890908050537107 q0,-5 5,-5 h74.36360931396484 q5,0 5,5 v32.89090805053711 H0 Z" class="node-bkg node-no-border" id="node-21"></path><line y2="37.89090805053711" x2="84.36360931396484" y1="37.89090805053711" x1="0" class="node-line-3"></line></g><g transform="translate(42.18180465698242, 5)"><text text-anchor="middle" dominant-baseline="middle" alignment-baseline="middle" dy="1em"><tspan dy="1em" x="0">防抖节流</tspan></text></g></g><g transform="translate(309.0732093023954, 488.28093187253626)" class="mindmap-node section-3"><g><path d="M0 32.89090805053711 v-27.890908050537107 q0,-5 5,-5 h82.42608642578125 q5,0 5,5 v32.89090805053711 H0 Z" class="node-bkg node-no-border" id="node-22"></path><line y2="37.89090805053711" x2="92.42608642578125" y1="37.89090805053711" x1="0" class="node-line-3"></line></g><g transform="translate(46.213043212890625, 5)"><text text-anchor="middle" dominant-baseline="middle" alignment-baseline="middle" dy="1em"><tspan dy="1em" x="0">React优化</tspan></text></g></g><g transform="translate(241.2851147523627, 376.26552963751465)" class="mindmap-node section-3"><g><path d="M0 32.89090805053711 v-27.890908050537107 q0,-5 5,-5 h106.30890655517578 q5,0 5,5 v32.89090805053711 H0 Z" class="node-bkg node-no-border" id="node-23"></path><line y2="37.89090805053711" x2="116.30890655517578" y1="37.89090805053711" x1="0" class="node-line-3"></line></g><g transform="translate(58.15445327758789, 5)"><text text-anchor="middle" dominant-baseline="middle" alignment-baseline="middle" dy="1em"><tspan dy="1em" x="0">DOM操作优化</tspan></text></g></g><g transform="translate(255.142647722172, 439.09459447410745)" class="mindmap-node section-3"><g><path d="M0 32.89090805053711 v-27.890908050537107 q0,-5 5,-5 h67.3245620727539 q5,0 5,5 v32.89090805053711 H0 Z" class="node-bkg node-no-border" id="node-24"></path><line y2="37.89090805053711" x2="77.3245620727539" y1="37.89090805053711" x1="0" class="node-line-3"></line></g><g transform="translate(38.66228103637695, 5)"><text text-anchor="middle" dominant-baseline="middle" alignment-baseline="middle" dy="1em"><tspan dy="1em" x="0">CSS优化</tspan></text></g></g><g transform="translate(187.57576560799953, 327.3755564450487)" class="mindmap-node section-4"><g><path d="M0 32.89090805053711 v-27.890908050537107 q0,-5 5,-5 h74.36360931396484 q5,0 5,5 v32.89090805053711 H0 Z" class="node-bkg node-no-border" id="node-25"></path><line y2="37.89090805053711" x2="84.36360931396484" y1="37.89090805053711" x1="0" class="node-line-4"></line></g><g transform="translate(42.18180465698242, 5)"><text text-anchor="middle" dominant-baseline="middle" alignment-baseline="middle" dy="1em"><tspan dy="1em" x="0">内存优化</tspan></text></g></g><g transform="translate(18.8736229233358, 324.16637765800306)" class="mindmap-node section-4"><g><path d="M0 32.89090805053711 v-27.890908050537107 q0,-5 5,-5 h106.0085220336914 q5,0 5,5 v32.89090805053711 H0 Z" class="node-bkg node-no-border" id="node-26"></path><line y2="37.89090805053711" x2="116.0085220336914" y1="37.89090805053711" x1="0" class="node-line-4"></line></g><g transform="translate(58.0042610168457, 5)"><text text-anchor="middle" dominant-baseline="middle" alignment-baseline="middle" dy="1em"><tspan dy="1em" x="0">内存泄漏防护</tspan></text></g></g><g transform="translate(19.195471955086077, 383.38366258196083)" class="mindmap-node section-4"><g><path d="M0 32.89090805053711 v-27.890908050537107 q0,-5 5,-5 h74.36360931396484 q5,0 5,5 v32.89090805053711 H0 Z" class="node-bkg node-no-border" id="node-27"></path><line y2="37.89090805053711" x2="84.36360931396484" y1="37.89090805053711" x1="0" class="node-line-4"></line></g><g transform="translate(42.18180465698242, 5)"><text text-anchor="middle" dominant-baseline="middle" alignment-baseline="middle" dy="1em"><tspan dy="1em" x="0">组件卸载</tspan></text></g></g><g transform="translate(15, 261.9950878995094)" class="mindmap-node section-4"><g><path d="M0 32.89090805053711 v-27.890908050537107 q0,-5 5,-5 h90.36360168457031 q5,0 5,5 v32.89090805053711 H0 Z" class="node-bkg node-no-border" id="node-28"></path><line y2="37.89090805053711" x2="100.36360168457031" y1="37.89090805053711" x1="0" class="node-line-4"></line></g><g transform="translate(50.181800842285156, 5)"><text text-anchor="middle" dominant-baseline="middle" alignment-baseline="middle" dy="1em"><tspan dy="1em" x="0">大对象处理</tspan></text></g></g><g transform="translate(117.20281573340549, 422.7485501170788)" class="mindmap-node section-4"><g><path d="M0 32.89090805053711 v-27.890908050537107 q0,-5 5,-5 h106.36359405517578 q5,0 5,5 v32.89090805053711 H0 Z" class="node-bkg node-no-border" id="node-29"></path><line y2="37.89090805053711" x2="116.36359405517578" y1="37.89090805053711" x1="0" class="node-line-4"></line></g><g transform="translate(58.18179702758789, 5)"><text text-anchor="middle" dominant-baseline="middle" alignment-baseline="middle" dy="1em"><tspan dy="1em" x="0">图片内存管理</tspan></text></g></g><g transform="translate(238.22172264988114, 211.30429063541828)" class="mindmap-node section-5"><g><path d="M0 32.89090805053711 v-27.890908050537107 q0,-5 5,-5 h74.36360931396484 q5,0 5,5 v32.89090805053711 H0 Z" class="node-bkg node-no-border" id="node-30"></path><line y2="37.89090805053711" x2="84.36360931396484" y1="37.89090805053711" x1="0" class="node-line-5"></line></g><g transform="translate(42.18180465698242, 5)"><text text-anchor="middle" dominant-baseline="middle" alignment-baseline="middle" dy="1em"><tspan dy="1em" x="0">网络优化</tspan></text></g></g><g transform="translate(286.0387082152565, 280.15506976522704)" class="mindmap-node section-5"><g><path d="M0 32.89090805053711 v-27.890908050537107 q0,-5 5,-5 h74.00567626953125 q5,0 5,5 v32.89090805053711 H0 Z" class="node-bkg node-no-border" id="node-31"></path><line y2="37.89090805053711" x2="84.00567626953125" y1="37.89090805053711" x1="0" class="node-line-5"></line></g><g transform="translate(42.002838134765625, 5)"><text text-anchor="middle" dominant-baseline="middle" alignment-baseline="middle" dy="1em"><tspan dy="1em" x="0">请求合并</tspan></text></g></g><g transform="translate(360.30703907423526, 224.41944074252729)" class="mindmap-node section-5"><g><path d="M0 32.89090805053711 v-27.890908050537107 q0,-5 5,-5 h74.36360931396484 q5,0 5,5 v32.89090805053711 H0 Z" class="node-bkg node-no-border" id="node-32"></path><line y2="37.89090805053711" x2="84.36360931396484" y1="37.89090805053711" x1="0" class="node-line-5"></line></g><g transform="translate(42.18180465698242, 5)"><text text-anchor="middle" dominant-baseline="middle" alignment-baseline="middle" dy="1em"><tspan dy="1em" x="0">接口优化</tspan></text></g></g><g transform="translate(141.60405718326763, 270.8347027388901)" class="mindmap-node section-5"><g><path d="M0 32.89090805053711 v-27.890908050537107 q0,-5 5,-5 h74.00567626953125 q5,0 5,5 v32.89090805053711 H0 Z" class="node-bkg node-no-border" id="node-33"></path><line y2="37.89090805053711" x2="84.00567626953125" y1="37.89090805053711" x1="0" class="node-line-5"></line></g><g transform="translate(42.002838134765625, 5)"><text text-anchor="middle" dominant-baseline="middle" alignment-baseline="middle" dy="1em"><tspan dy="1em" x="0">数据压缩</tspan></text></g></g><g transform="translate(80.68939093951224, 205.14924854745323)" class="mindmap-node section-5"><g><path d="M0 32.89090805053711 v-27.890908050537107 q0,-5 5,-5 h90.36360168457031 q5,0 5,5 v32.89090805053711 H0 Z" class="node-bkg node-no-border" id="node-34"></path><line y2="37.89090805053711" x2="100.36360168457031" y1="37.89090805053711" x1="0" class="node-line-5"></line></g><g transform="translate(50.181800842285156, 5)"><text text-anchor="middle" dominant-baseline="middle" alignment-baseline="middle" dy="1em"><tspan dy="1em" x="0">请求优先级</tspan></text></g></g><g transform="translate(96.6843266380132, 139.41424849028397)" class="mindmap-node section-5"><g><path d="M0 32.89090805053711 v-27.890908050537107 q0,-5 5,-5 h74.36360931396484 q5,0 5,5 v32.89090805053711 H0 Z" class="node-bkg node-no-border" id="node-35"></path><line y2="37.89090805053711" x2="84.36360931396484" y1="37.89090805053711" x1="0" class="node-line-5"></line></g><g transform="translate(42.18180465698242, 5)"><text text-anchor="middle" dominant-baseline="middle" alignment-baseline="middle" dy="1em"><tspan dy="1em" x="0">离线策略</tspan></text></g></g><g transform="translate(633.2290937824764, 193.286523597092)" class="mindmap-node section-6"><g><path d="M0 32.89090805053711 v-27.890908050537107 q0,-5 5,-5 h74.36360931396484 q5,0 5,5 v32.89090805053711 H0 Z" class="node-bkg node-no-border" id="node-36"></path><line y2="37.89090805053711" x2="84.36360931396484" y1="37.89090805053711" x1="0" class="node-line-6"></line></g><g transform="translate(42.18180465698242, 5)"><text text-anchor="middle" dominant-baseline="middle" alignment-baseline="middle" dy="1em"><tspan dy="1em" x="0">用户体验</tspan></text></g></g><g transform="translate(758.452028421983, 157.67967129338945)" class="mindmap-node section-6"><g><path d="M0 32.89090805053711 v-27.890908050537107 q0,-5 5,-5 h58.01136016845703 q5,0 5,5 v32.89090805053711 H0 Z" class="node-bkg node-no-border" id="node-37"></path><line y2="37.89090805053711" x2="68.01136016845703" y1="37.89090805053711" x1="0" class="node-line-6"></line></g><g transform="translate(34.005680084228516, 5)"><text text-anchor="middle" dominant-baseline="middle" alignment-baseline="middle" dy="1em"><tspan dy="1em" x="0">骨架屏</tspan></text></g></g><g transform="translate(745.7540648036413, 98.77721883188667)" class="mindmap-node section-6"><g><path d="M0 32.89090805053711 v-27.890908050537107 q0,-5 5,-5 h90.36360168457031 q5,0 5,5 v32.89090805053711 H0 Z" class="node-bkg node-no-border" id="node-38"></path><line y2="37.89090805053711" x2="100.36360168457031" y1="37.89090805053711" x1="0" class="node-line-6"></line></g><g transform="translate(50.181800842285156, 5)"><text text-anchor="middle" dominant-baseline="middle" alignment-baseline="middle" dy="1em"><tspan dy="1em" x="0">渐进式加载</tspan></text></g></g><g transform="translate(699.4774905500478, 264.5676365390266)" class="mindmap-node section-6"><g><path d="M0 32.89090805053711 v-27.890908050537107 q0,-5 5,-5 h74.36360931396484 q5,0 5,5 v32.89090805053711 H0 Z" class="node-bkg node-no-border" id="node-39"></path><line y2="37.89090805053711" x2="84.36360931396484" y1="37.89090805053711" x1="0" class="node-line-6"></line></g><g transform="translate(42.18180465698242, 5)"><text text-anchor="middle" dominant-baseline="middle" alignment-baseline="middle" dy="1em"><tspan dy="1em" x="0">错误边界</tspan></text></g></g><g transform="translate(576.1916086044082, 259.7078358742923)" class="mindmap-node section-6"><g><path d="M0 32.89090805053711 v-27.890908050537107 q0,-5 5,-5 h74.36360931396484 q5,0 5,5 v32.89090805053711 H0 Z" class="node-bkg node-no-border" id="node-40"></path><line y2="37.89090805053711" x2="84.36360931396484" y1="37.89090805053711" x1="0" class="node-line-6"></line></g><g transform="translate(42.18180465698242, 5)"><text text-anchor="middle" dominant-baseline="middle" alignment-baseline="middle" dy="1em"><tspan dy="1em" x="0">加载状态</tspan></text></g></g><g transform="translate(793.2974625732261, 210.41743710532364)" class="mindmap-node section-6"><g><path d="M0 32.89090805053711 v-27.890908050537107 q0,-5 5,-5 h90.36360168457031 q5,0 5,5 v32.89090805053711 H0 Z" class="node-bkg node-no-border" id="node-41"></path><line y2="37.89090805053711" x2="100.36360168457031" y1="37.89090805053711" x1="0" class="node-line-6"></line></g><g transform="translate(50.181800842285156, 5)"><text text-anchor="middle" dominant-baseline="middle" alignment-baseline="middle" dy="1em"><tspan dy="1em" x="0">响应式设计</tspan></text></g></g><g transform="translate(671.3993824959978, 332.39062530652586)" class="mindmap-node section-7"><g><path d="M0 32.89090805053711 v-27.890908050537107 q0,-5 5,-5 h74.36360931396484 q5,0 5,5 v32.89090805053711 H0 Z" class="node-bkg node-no-border" id="node-42"></path><line y2="37.89090805053711" x2="84.36360931396484" y1="37.89090805053711" x1="0" class="node-line-7"></line></g><g transform="translate(42.18180465698242, 5)"><text text-anchor="middle" dominant-baseline="middle" alignment-baseline="middle" dy="1em"><tspan dy="1em" x="0">监控分析</tspan></text></g></g><g transform="translate(614.7842429616842, 404.3542200157874)" class="mindmap-node section-7"><g><path d="M0 32.89090805053711 v-27.890908050537107 q0,-5 5,-5 h74.36360931396484 q5,0 5,5 v32.89090805053711 H0 Z" class="node-bkg node-no-border" id="node-43"></path><line y2="37.89090805053711" x2="84.36360931396484" y1="37.89090805053711" x1="0" class="node-line-7"></line></g><g transform="translate(42.18180465698242, 5)"><text text-anchor="middle" dominant-baseline="middle" alignment-baseline="middle" dy="1em"><tspan dy="1em" x="0">性能监控</tspan></text></g></g><g transform="translate(813.2273997207362, 278.4962773554819)" class="mindmap-node section-7"><g><path d="M0 32.89090805053711 v-27.890908050537107 q0,-5 5,-5 h74.36360931396484 q5,0 5,5 v32.89090805053711 H0 Z" class="node-bkg node-no-border" id="node-44"></path><line y2="37.89090805053711" x2="84.36360931396484" y1="37.89090805053711" x1="0" class="node-line-7"></line></g><g transform="translate(42.18180465698242, 5)"><text text-anchor="middle" dominant-baseline="middle" alignment-baseline="middle" dy="1em"><tspan dy="1em" x="0">错误监控</tspan></text></g></g><g transform="translate(821.9641052980262, 339.24784832978935)" class="mindmap-node section-7"><g><path d="M0 32.89090805053711 v-27.890908050537107 q0,-5 5,-5 h106.36359405517578 q5,0 5,5 v32.89090805053711 H0 Z" class="node-bkg node-no-border" id="node-45"></path><line y2="37.89090805053711" x2="116.36359405517578" y1="37.89090805053711" x1="0" class="node-line-7"></line></g><g transform="translate(58.18179702758789, 5)"><text text-anchor="middle" dominant-baseline="middle" alignment-baseline="middle" dy="1em"><tspan dy="1em" x="0">用户行为分析</tspan></text></g></g><g transform="translate(822.7598312049813, 401.8136018616617)" class="mindmap-node section-7"><g><path d="M0 32.89090805053711 v-27.890908050537107 q0,-5 5,-5 h74.00567626953125 q5,0 5,5 v32.89090805053711 H0 Z" class="node-bkg node-no-border" id="node-46"></path><line y2="37.89090805053711" x2="84.00567626953125" y1="37.89090805053711" x1="0" class="node-line-7"></line></g><g transform="translate(42.002838134765625, 5)"><text text-anchor="middle" dominant-baseline="middle" alignment-baseline="middle" dy="1em"><tspan dy="1em" x="0">性能埋点</tspan></text></g></g><g transform="translate(723.1375006770913, 420.6590568441334)" class="mindmap-node section-7"><g><path d="M0 32.89090805053711 v-27.890908050537107 q0,-5 5,-5 h70.15549850463867 q5,0 5,5 v32.89090805053711 H0 Z" class="node-bkg node-no-border" id="node-47"></path><line y2="37.89090805053711" x2="80.15549850463867" y1="37.89090805053711" x1="0" class="node-line-7"></line></g><g transform="translate(40.077749252319336, 5)"><text text-anchor="middle" dominant-baseline="middle" alignment-baseline="middle" dy="1em"><tspan dy="1em" x="0">A/B测试</tspan></text></g></g></g></svg>